<mxfile host="app.diagrams.net" modified="2024-03-20T07:23:17.798Z" agent="Mozilla/5.0 (Windows NT 10.0; Win64; x64) AppleWebKit/537.36 (KHTML, like Gecko) Chrome/122.0.0.0 Safari/537.36" etag="g8i-bfDiID4Ojvy0vXOS" version="24.0.7" type="device">
  <diagram name="Страница — 1" id="1lNrHB_gaKwPXIvljhU9">
    <mxGraphModel dx="936" dy="1269" grid="1" gridSize="10" guides="1" tooltips="1" connect="1" arrows="1" fold="1" page="1" pageScale="1" pageWidth="827" pageHeight="1169" math="0" shadow="0">
      <root>
        <mxCell id="0" />
        <mxCell id="1" parent="0" />
        <mxCell id="SsdqD4UkFX1JxJGcO28Z-3" value="&amp;lt;&amp;lt;device&amp;gt;&amp;gt;&lt;div&gt;DB Server&lt;/div&gt;" style="verticalAlign=top;align=center;spacingTop=8;spacingLeft=2;spacingRight=12;shape=cube;size=10;direction=south;fontStyle=4;html=1;whiteSpace=wrap;" vertex="1" parent="1">
          <mxGeometry x="890" y="460" width="190" height="130" as="geometry" />
        </mxCell>
        <mxCell id="SsdqD4UkFX1JxJGcO28Z-4" value="&lt;div style=&quot;&quot;&gt;&lt;span style=&quot;background-color: initial;&quot;&gt;&lt;br&gt;&lt;/span&gt;&lt;/div&gt;&lt;div style=&quot;&quot;&gt;&lt;span style=&quot;background-color: initial;&quot;&gt;PostrgeSQL&lt;/span&gt;&lt;/div&gt;" style="shape=module;align=center;spacingLeft=20;align=center;verticalAlign=top;whiteSpace=wrap;html=1;" vertex="1" parent="1">
          <mxGeometry x="930" y="520" width="100" height="50" as="geometry" />
        </mxCell>
        <mxCell id="SsdqD4UkFX1JxJGcO28Z-6" value="&amp;lt;&amp;lt;device&amp;gt;&amp;gt;&lt;div&gt;Backend Server&lt;/div&gt;" style="verticalAlign=top;align=center;spacingTop=8;spacingLeft=2;spacingRight=12;shape=cube;size=10;direction=south;fontStyle=4;html=1;whiteSpace=wrap;" vertex="1" parent="1">
          <mxGeometry x="670" y="460" width="190" height="130" as="geometry" />
        </mxCell>
        <mxCell id="SsdqD4UkFX1JxJGcO28Z-7" value="&lt;div style=&quot;&quot;&gt;Express&lt;/div&gt;&lt;div style=&quot;&quot;&gt;ORM Prisma&lt;/div&gt;" style="shape=module;align=center;spacingLeft=20;align=center;verticalAlign=top;whiteSpace=wrap;html=1;" vertex="1" parent="1">
          <mxGeometry x="710" y="520" width="100" height="50" as="geometry" />
        </mxCell>
        <mxCell id="SsdqD4UkFX1JxJGcO28Z-8" value="&amp;lt;&amp;lt;device&amp;gt;&amp;gt;&lt;div&gt;UserClient&lt;/div&gt;" style="verticalAlign=top;align=center;spacingTop=8;spacingLeft=2;spacingRight=12;shape=cube;size=10;direction=south;fontStyle=4;html=1;whiteSpace=wrap;" vertex="1" parent="1">
          <mxGeometry x="330" y="430" width="270" height="190" as="geometry" />
        </mxCell>
        <mxCell id="SsdqD4UkFX1JxJGcO28Z-10" value="&amp;lt;&amp;lt;device&amp;gt;&amp;gt;&lt;div&gt;Browser&lt;/div&gt;" style="verticalAlign=top;align=center;spacingTop=8;spacingLeft=2;spacingRight=12;shape=cube;size=10;direction=south;fontStyle=4;html=1;whiteSpace=wrap;" vertex="1" parent="1">
          <mxGeometry x="380" y="490" width="170" height="110" as="geometry" />
        </mxCell>
        <mxCell id="SsdqD4UkFX1JxJGcO28Z-11" value="&lt;div style=&quot;&quot;&gt;React&lt;br&gt;frontend&lt;/div&gt;" style="shape=module;align=center;spacingLeft=20;align=center;verticalAlign=top;whiteSpace=wrap;html=1;" vertex="1" parent="1">
          <mxGeometry x="407" y="540" width="100" height="50" as="geometry" />
        </mxCell>
        <mxCell id="SsdqD4UkFX1JxJGcO28Z-12" value="" style="endArrow=classic;startArrow=classic;html=1;rounded=0;entryX=0;entryY=0;entryDx=70;entryDy=190;entryPerimeter=0;exitX=0.529;exitY=0.001;exitDx=0;exitDy=0;exitPerimeter=0;" edge="1" parent="1" source="SsdqD4UkFX1JxJGcO28Z-8" target="SsdqD4UkFX1JxJGcO28Z-6">
          <mxGeometry width="50" height="50" relative="1" as="geometry">
            <mxPoint x="600" y="540" as="sourcePoint" />
            <mxPoint x="650" y="490" as="targetPoint" />
          </mxGeometry>
        </mxCell>
        <mxCell id="SsdqD4UkFX1JxJGcO28Z-13" value="HTTPS" style="text;html=1;align=center;verticalAlign=middle;resizable=0;points=[];autosize=1;strokeColor=none;fillColor=none;" vertex="1" parent="1">
          <mxGeometry x="605" y="500" width="60" height="30" as="geometry" />
        </mxCell>
        <mxCell id="SsdqD4UkFX1JxJGcO28Z-14" value="" style="endArrow=classic;startArrow=classic;html=1;rounded=0;exitX=0;exitY=0;exitDx=130;exitDy=100;exitPerimeter=0;" edge="1" parent="1" source="SsdqD4UkFX1JxJGcO28Z-6">
          <mxGeometry width="50" height="50" relative="1" as="geometry">
            <mxPoint x="720" y="640" as="sourcePoint" />
            <mxPoint x="980" y="590" as="targetPoint" />
            <Array as="points">
              <mxPoint x="760" y="640" />
              <mxPoint x="890" y="640" />
              <mxPoint x="980" y="640" />
            </Array>
          </mxGeometry>
        </mxCell>
        <mxCell id="SsdqD4UkFX1JxJGcO28Z-16" value="TCP" style="text;html=1;align=center;verticalAlign=middle;resizable=0;points=[];autosize=1;strokeColor=none;fillColor=none;" vertex="1" parent="1">
          <mxGeometry x="850" y="610" width="50" height="30" as="geometry" />
        </mxCell>
      </root>
    </mxGraphModel>
  </diagram>
</mxfile>
